<mxfile host="app.diagrams.net" modified="2023-08-17T01:34:04.820Z" agent="Mozilla/5.0 (Windows NT 10.0; Win64; x64) AppleWebKit/537.36 (KHTML, like Gecko) Chrome/115.0.0.0 Safari/537.36" etag="T5aBW_zsz9w8DlgVedh2" version="21.6.3" type="github">
  <diagram name="第 1 页" id="urADUWJFApaHOWvY2Q-J">
    <mxGraphModel dx="3090" dy="2137" grid="1" gridSize="10" guides="1" tooltips="1" connect="1" arrows="1" fold="1" page="1" pageScale="1" pageWidth="827" pageHeight="1169" math="0" shadow="0">
      <root>
        <mxCell id="0" />
        <mxCell id="1" parent="0" />
        <mxCell id="3Cm4z7Rbqq3TpNdfCXnM-51" style="edgeStyle=orthogonalEdgeStyle;rounded=0;orthogonalLoop=1;jettySize=auto;html=1;strokeWidth=3;endArrow=classic;endFill=1;" edge="1" parent="1">
          <mxGeometry relative="1" as="geometry">
            <mxPoint x="1944" y="810" as="targetPoint" />
            <mxPoint x="1943.57" y="683" as="sourcePoint" />
          </mxGeometry>
        </mxCell>
        <mxCell id="3Cm4z7Rbqq3TpNdfCXnM-36" value="" style="whiteSpace=wrap;html=1;dashed=1;strokeWidth=1;fillColor=none;" vertex="1" parent="1">
          <mxGeometry x="591" y="461" width="380" height="70" as="geometry" />
        </mxCell>
        <mxCell id="3Cm4z7Rbqq3TpNdfCXnM-26" value="" style="rounded=1;whiteSpace=wrap;html=1;strokeWidth=2;fillColor=#cce5ff;strokeColor=#adacae;" vertex="1" parent="1">
          <mxGeometry x="1030" y="490" width="460" height="215" as="geometry" />
        </mxCell>
        <mxCell id="3Cm4z7Rbqq3TpNdfCXnM-10" value="" style="whiteSpace=wrap;html=1;dashed=1;strokeWidth=1;fillColor=#F0EFEF;" vertex="1" parent="1">
          <mxGeometry x="590" y="530" width="380" height="390" as="geometry" />
        </mxCell>
        <mxCell id="3Cm4z7Rbqq3TpNdfCXnM-11" value="" style="ellipse;whiteSpace=wrap;html=1;aspect=fixed;fillColor=#ffcc99;strokeColor=none;rotation=212;" vertex="1" parent="1">
          <mxGeometry x="591" y="536" width="147" height="147" as="geometry" />
        </mxCell>
        <mxCell id="3Cm4z7Rbqq3TpNdfCXnM-9" value="" style="endArrow=none;dashed=1;html=1;rounded=0;strokeWidth=3;" edge="1" parent="1">
          <mxGeometry width="50" height="50" relative="1" as="geometry">
            <mxPoint x="520" y="970" as="sourcePoint" />
            <mxPoint x="520" y="260" as="targetPoint" />
          </mxGeometry>
        </mxCell>
        <mxCell id="3Cm4z7Rbqq3TpNdfCXnM-12" value="" style="ellipse;whiteSpace=wrap;html=1;aspect=fixed;fillColor=#c4e0b4;strokeColor=none;" vertex="1" parent="1">
          <mxGeometry x="780" y="760" width="70" height="70" as="geometry" />
        </mxCell>
        <mxCell id="3Cm4z7Rbqq3TpNdfCXnM-13" value="" style="ellipse;whiteSpace=wrap;html=1;aspect=fixed;fillColor=#cce5ff;strokeColor=none;" vertex="1" parent="1">
          <mxGeometry x="820" y="635" width="115" height="115" as="geometry" />
        </mxCell>
        <mxCell id="3Cm4z7Rbqq3TpNdfCXnM-17" value="" style="ellipse;whiteSpace=wrap;html=1;aspect=fixed;fillColor=#ffff88;strokeColor=none;rotation=212;" vertex="1" parent="1">
          <mxGeometry x="592" y="808" width="110" height="110" as="geometry" />
        </mxCell>
        <mxCell id="3Cm4z7Rbqq3TpNdfCXnM-18" value="" style="ellipse;whiteSpace=wrap;html=1;aspect=fixed;fillColor=#cce5ff;strokeColor=none;" vertex="1" parent="1">
          <mxGeometry x="660" y="695" width="115" height="115" as="geometry" />
        </mxCell>
        <mxCell id="3Cm4z7Rbqq3TpNdfCXnM-19" value="" style="ellipse;whiteSpace=wrap;html=1;aspect=fixed;fillColor=#fff2cc;strokeColor=#d6b656;" vertex="1" parent="1">
          <mxGeometry x="890" y="549" width="70" height="70" as="geometry" />
        </mxCell>
        <mxCell id="3Cm4z7Rbqq3TpNdfCXnM-21" value="" style="ellipse;whiteSpace=wrap;html=1;aspect=fixed;fillColor=#ffcc99;strokeColor=none;rotation=212;" vertex="1" parent="1">
          <mxGeometry x="840" y="803" width="117" height="117" as="geometry" />
        </mxCell>
        <mxCell id="3Cm4z7Rbqq3TpNdfCXnM-22" value="&lt;font style=&quot;font-size: 34px;&quot; face=&quot;Times New Roman&quot;&gt;(a) Instance format&lt;/font&gt;" style="text;strokeColor=none;fillColor=none;html=1;fontSize=24;fontStyle=1;verticalAlign=middle;align=center;" vertex="1" parent="1">
          <mxGeometry x="73.57" y="970" width="320" height="100" as="geometry" />
        </mxCell>
        <mxCell id="3Cm4z7Rbqq3TpNdfCXnM-25" value="" style="rounded=1;whiteSpace=wrap;html=1;strokeWidth=2;fillColor=#cce5ff;strokeColor=#adacae;" vertex="1" parent="1">
          <mxGeometry x="1155" y="465" width="210" height="60" as="geometry" />
        </mxCell>
        <mxCell id="3Cm4z7Rbqq3TpNdfCXnM-28" value="" style="rounded=1;whiteSpace=wrap;html=1;strokeWidth=2;fillColor=#c4e0b4;strokeColor=#b1b2b6;" vertex="1" parent="1">
          <mxGeometry x="1026" y="817" width="460" height="132" as="geometry" />
        </mxCell>
        <mxCell id="3Cm4z7Rbqq3TpNdfCXnM-29" value="" style="rounded=1;whiteSpace=wrap;html=1;strokeWidth=2;fillColor=#c4e0b4;strokeColor=#b1b2b6;" vertex="1" parent="1">
          <mxGeometry x="1111" y="787.85" width="130" height="60" as="geometry" />
        </mxCell>
        <mxCell id="3Cm4z7Rbqq3TpNdfCXnM-31" value="" style="rounded=1;whiteSpace=wrap;html=1;strokeWidth=2;fillColor=#c4e0b4;strokeColor=#b1b2b6;" vertex="1" parent="1">
          <mxGeometry x="1290" y="787.85" width="130" height="60" as="geometry" />
        </mxCell>
        <mxCell id="3Cm4z7Rbqq3TpNdfCXnM-37" value="" style="rounded=1;whiteSpace=wrap;html=1;strokeWidth=2;fillColor=#ffe698;strokeColor=#b1b2b6;" vertex="1" parent="1">
          <mxGeometry x="1030" y="298" width="460" height="132" as="geometry" />
        </mxCell>
        <mxCell id="3Cm4z7Rbqq3TpNdfCXnM-38" value="" style="rounded=1;whiteSpace=wrap;html=1;strokeWidth=2;fillColor=#ffe698;strokeColor=#b1b2b6;" vertex="1" parent="1">
          <mxGeometry x="1121" y="270" width="278" height="60" as="geometry" />
        </mxCell>
        <mxCell id="3Cm4z7Rbqq3TpNdfCXnM-1" value="" style="rounded=1;whiteSpace=wrap;html=1;strokeWidth=3;strokeColor=#1A1A1A;movable=1;resizable=1;rotatable=1;deletable=1;editable=1;locked=0;connectable=1;" vertex="1" parent="1">
          <mxGeometry x="-20" y="294.5" width="500" height="655.5" as="geometry" />
        </mxCell>
        <mxCell id="3Cm4z7Rbqq3TpNdfCXnM-32" value="" style="rounded=1;whiteSpace=wrap;html=1;strokeWidth=2;fillColor=#E7E6E6;strokeColor=#bfc4c8;movable=1;resizable=1;rotatable=1;deletable=1;editable=1;locked=0;connectable=1;" vertex="1" parent="1">
          <mxGeometry x="7.142857142857142" y="340.5" width="450" height="576.15" as="geometry" />
        </mxCell>
        <mxCell id="3Cm4z7Rbqq3TpNdfCXnM-2" value="&lt;font size=&quot;1&quot; face=&quot;Times New Roman&quot; style=&quot;&quot;&gt;&lt;b style=&quot;font-size: 34px;&quot;&gt;Instance&lt;/b&gt;&lt;/font&gt;" style="rounded=1;whiteSpace=wrap;html=1;strokeWidth=3;strokeColor=#1A1A1A;movable=1;resizable=1;rotatable=1;deletable=1;editable=1;locked=0;connectable=1;" vertex="1" parent="1">
          <mxGeometry x="80" y="260" width="300" height="69" as="geometry" />
        </mxCell>
        <mxCell id="3Cm4z7Rbqq3TpNdfCXnM-3" value="" style="rounded=1;whiteSpace=wrap;html=1;fillColor=#ffe698;strokeColor=#b1b2b6;movable=1;resizable=1;rotatable=1;deletable=1;editable=1;locked=0;connectable=1;strokeWidth=2;" vertex="1" parent="1">
          <mxGeometry x="37.142857142857146" y="353.15" width="385.7142857142857" height="69" as="geometry" />
        </mxCell>
        <mxCell id="3Cm4z7Rbqq3TpNdfCXnM-4" value="" style="whiteSpace=wrap;html=1;fillColor=#c4e0b4;strokeColor=#bfc4c8;gradientColor=#c5ddf1;gradientDirection=radial;rounded=1;strokeWidth=2;movable=1;resizable=1;rotatable=1;deletable=1;editable=1;locked=0;connectable=1;" vertex="1" parent="1">
          <mxGeometry x="17.85714285714286" y="441.7" width="428.57142857142856" height="346.15" as="geometry" />
        </mxCell>
        <mxCell id="3Cm4z7Rbqq3TpNdfCXnM-5" value="" style="rounded=1;whiteSpace=wrap;html=1;fillColor=#ddecf7;strokeColor=#bfc4c8;movable=1;resizable=1;rotatable=1;deletable=1;editable=1;locked=0;connectable=1;" vertex="1" parent="1">
          <mxGeometry x="33.57142857142857" y="455.5" width="392.8571428571429" height="172.5" as="geometry" />
        </mxCell>
        <mxCell id="3Cm4z7Rbqq3TpNdfCXnM-7" value="" style="rounded=1;whiteSpace=wrap;html=1;fillColor=#c4e0b4;strokeColor=#bfc4c8;strokeWidth=2;movable=1;resizable=1;rotatable=1;deletable=1;editable=1;locked=0;connectable=1;" vertex="1" parent="1">
          <mxGeometry x="37.142857142857146" y="651" width="392.8571428571429" height="92" as="geometry" />
        </mxCell>
        <mxCell id="3Cm4z7Rbqq3TpNdfCXnM-8" value="" style="rounded=1;whiteSpace=wrap;html=1;fillColor=#c4e0b4;strokeColor=#bfc4c8;strokeWidth=2;movable=1;resizable=1;rotatable=1;deletable=1;editable=1;locked=0;connectable=1;" vertex="1" parent="1">
          <mxGeometry x="37.142857142857146" y="812" width="392.8571428571429" height="92" as="geometry" />
        </mxCell>
        <mxCell id="3Cm4z7Rbqq3TpNdfCXnM-41" value="" style="endArrow=none;dashed=1;html=1;rounded=0;strokeWidth=3;" edge="1" parent="1">
          <mxGeometry width="50" height="50" relative="1" as="geometry">
            <mxPoint x="1540" y="990" as="sourcePoint" />
            <mxPoint x="1540" y="280" as="targetPoint" />
          </mxGeometry>
        </mxCell>
        <mxCell id="3Cm4z7Rbqq3TpNdfCXnM-42" value="&lt;font style=&quot;font-size: 34px;&quot; face=&quot;Times New Roman&quot;&gt;(a) Instance format&lt;/font&gt;" style="text;strokeColor=none;fillColor=none;html=1;fontSize=24;fontStyle=1;verticalAlign=middle;align=center;" vertex="1" parent="1">
          <mxGeometry x="820" y="968" width="320" height="100" as="geometry" />
        </mxCell>
        <mxCell id="3Cm4z7Rbqq3TpNdfCXnM-43" value="&lt;font style=&quot;font-size: 34px;&quot; face=&quot;Times New Roman&quot;&gt;NLP Datasets&lt;/font&gt;" style="text;strokeColor=none;fillColor=none;html=1;fontSize=24;fontStyle=1;verticalAlign=middle;align=center;" vertex="1" parent="1">
          <mxGeometry x="621" y="446" width="320" height="100" as="geometry" />
        </mxCell>
        <mxCell id="3Cm4z7Rbqq3TpNdfCXnM-44" value="" style="endArrow=classic;html=1;rounded=0;entryX=0.043;entryY=0.977;entryDx=0;entryDy=0;entryPerimeter=0;exitX=1.003;exitY=0.549;exitDx=0;exitDy=0;exitPerimeter=0;strokeWidth=3;" edge="1" parent="1" source="3Cm4z7Rbqq3TpNdfCXnM-10">
          <mxGeometry width="50" height="50" relative="1" as="geometry">
            <mxPoint x="990" y="720" as="sourcePoint" />
            <mxPoint x="1026.0000000000002" y="612.0249999999999" as="targetPoint" />
          </mxGeometry>
        </mxCell>
        <mxCell id="3Cm4z7Rbqq3TpNdfCXnM-45" value="" style="endArrow=classic;html=1;rounded=0;entryX=0;entryY=0.5;entryDx=0;entryDy=0;exitX=1.003;exitY=0.549;exitDx=0;exitDy=0;exitPerimeter=0;strokeWidth=3;" edge="1" parent="1">
          <mxGeometry width="50" height="50" relative="1" as="geometry">
            <mxPoint x="971" y="740" as="sourcePoint" />
            <mxPoint x="1016" y="869" as="targetPoint" />
          </mxGeometry>
        </mxCell>
        <mxCell id="3Cm4z7Rbqq3TpNdfCXnM-46" value="" style="ellipse;whiteSpace=wrap;html=1;aspect=fixed;fillColor=#c4e0b4;strokeColor=none;" vertex="1" parent="1">
          <mxGeometry x="738" y="530" width="120" height="120" as="geometry" />
        </mxCell>
        <mxCell id="3Cm4z7Rbqq3TpNdfCXnM-48" style="edgeStyle=orthogonalEdgeStyle;rounded=0;orthogonalLoop=1;jettySize=auto;html=1;strokeWidth=3;endArrow=classic;endFill=1;" edge="1" parent="1" source="3Cm4z7Rbqq3TpNdfCXnM-47">
          <mxGeometry relative="1" as="geometry">
            <mxPoint x="1945" y="510" as="targetPoint" />
          </mxGeometry>
        </mxCell>
        <mxCell id="3Cm4z7Rbqq3TpNdfCXnM-47" value="" style="whiteSpace=wrap;html=1;dashed=1;strokeWidth=1;fillColor=#F0EFEF;" vertex="1" parent="1">
          <mxGeometry x="1640" y="185" width="610" height="225" as="geometry" />
        </mxCell>
        <mxCell id="3Cm4z7Rbqq3TpNdfCXnM-49" value="" style="rounded=1;whiteSpace=wrap;html=1;strokeWidth=2;fillColor=#ffe698;strokeColor=#b1b2b6;" vertex="1" parent="1">
          <mxGeometry x="1720" y="545.4999999999999" width="460" height="132" as="geometry" />
        </mxCell>
        <mxCell id="3Cm4z7Rbqq3TpNdfCXnM-50" value="" style="rounded=1;whiteSpace=wrap;html=1;strokeWidth=2;fillColor=#ffe698;strokeColor=#b1b2b6;" vertex="1" parent="1">
          <mxGeometry x="1811" y="517.4999999999999" width="278" height="60" as="geometry" />
        </mxCell>
        <mxCell id="3Cm4z7Rbqq3TpNdfCXnM-52" value="" style="rounded=1;whiteSpace=wrap;html=1;strokeWidth=2;fillColor=#c4e0b4;strokeColor=#b1b2b6;" vertex="1" parent="1">
          <mxGeometry x="1716" y="839.57" width="460" height="132" as="geometry" />
        </mxCell>
        <mxCell id="3Cm4z7Rbqq3TpNdfCXnM-53" value="" style="rounded=1;whiteSpace=wrap;html=1;strokeWidth=2;fillColor=#c4e0b4;strokeColor=#b1b2b6;" vertex="1" parent="1">
          <mxGeometry x="1801" y="810.4200000000001" width="130" height="60" as="geometry" />
        </mxCell>
        <mxCell id="3Cm4z7Rbqq3TpNdfCXnM-54" value="" style="rounded=1;whiteSpace=wrap;html=1;strokeWidth=2;fillColor=#c4e0b4;strokeColor=#b1b2b6;" vertex="1" parent="1">
          <mxGeometry x="1980" y="810.4200000000001" width="130" height="60" as="geometry" />
        </mxCell>
        <mxCell id="3Cm4z7Rbqq3TpNdfCXnM-56" value="&lt;font style=&quot;font-size: 34px;&quot;&gt;&lt;b&gt;Desired out put written b&lt;/b&gt;&lt;/font&gt;" style="rounded=0;whiteSpace=wrap;html=1;strokeColor=none;" vertex="1" parent="1">
          <mxGeometry x="1727" y="720" width="436" height="60" as="geometry" />
        </mxCell>
      </root>
    </mxGraphModel>
  </diagram>
</mxfile>
